Coordinates
version=1
nRows=16
nColumns=40
inDegrees=yes

Units are S.I. units (second, meters, Newtons, ...)
Angles are in degrees.

endheader
time	pelvis_tilt	pelvis_list	pelvis_rotation	pelvis_tx	pelvis_ty	pelvis_tz	hip_flexion_r	hip_adduction_r	hip_rotation_r	knee_angle_r	knee_angle_r_beta	ankle_angle_r	subtalar_angle_r	mtp_angle_r	hip_flexion_l	hip_adduction_l	hip_rotation_l	knee_angle_l	knee_angle_l_beta	ankle_angle_l	subtalar_angle_l	mtp_angle_l	lumbar_extension	lumbar_bending	lumbar_rotation	arm_flex_r	arm_add_r	arm_rot_r	elbow_flex_r	pro_sup_r	wrist_flex_r	wrist_dev_r	arm_flex_l	arm_add_l	arm_rot_l	elbow_flex_l	pro_sup_l	wrist_flex_l	wrist_dev_l
     35.04000000	     -4.19913930	     -3.81830314	     -6.61313551	      1.09703521	      0.93165001	      0.43473456	     26.42061200	     -2.12090186	    -10.34808779	     16.54506508	     16.54506508	      4.87252989	      5.38811640	      7.18774817	      5.52303344	     -4.52481332	    -13.71580849	     16.74202323	     16.74202323	     16.77016459	     -4.77812918	     -3.08570321	    -10.40983212	      2.22765049	     -0.60287647	     -9.55393318	    -12.60051119	    -12.16260192	     29.61754467	     46.94053430	      0.00000000	      0.00000000	     26.28242696	    -20.40481817	     -3.14975407	     62.28456414	     46.97186069	      0.00000000	      0.00000000
     35.05371429	     -3.95493501	     -3.53057429	     -6.55568694	      1.09783643	      0.93134274	      0.43637840	     25.93235152	     -2.35975401	     -9.96916791	     17.36335814	     17.36335814	      4.77831297	      5.04159965	      6.25322461	      4.38614357	     -4.26716040	    -14.50339943	     15.91676860	     15.91676860	     16.84310513	     -3.28274020	     -3.71438646	    -10.37832562	      1.96820246	     -0.87063916	     -9.38788645	    -12.52773197	    -11.71878796	     31.14486752	     46.81382830	      0.00000000	      0.00000000	     26.26594061	    -19.96686294	     -4.11398456	     60.95593227	     47.03986839	      0.00000000	      0.00000000
     35.06742857	     -3.87808834	     -3.26540103	     -6.40504733	      1.09860677	      0.93065572	      0.43802021	     25.55527935	     -2.59112953	     -9.62603566	     18.22743491	     18.22743491	      4.83841153	      4.69407616	      5.86534234	      3.62915921	     -3.99480020	    -14.58996752	     15.41565364	     15.41565364	     17.06123612	     -2.76953294	     -3.78876269	    -10.17612753	      1.71659446	     -0.97725446	     -8.93392899	    -12.43076119	    -11.57633499	     31.66975088	     46.77845315	      0.00000000	      0.00000000	     25.94238983	    -19.79976177	     -4.15496189	     60.51726127	     47.03648645	      0.00000000	      0.00000000
     35.08114286	     -3.76319016	     -3.03513563	     -6.22950688	      1.09960072	      0.92998444	      0.43983981	     24.90757732	     -2.71215846	     -9.15566225	     18.70643598	     18.70643598	      4.40581941	      4.08321841	      4.26932831	      2.82107391	     -3.83106346	    -14.97965046	     14.95979237	     14.95979237	     17.30718519	     -1.77357822	     -4.13450321	     -9.99391407	      1.51393958	     -1.07709280	     -9.02725202	    -12.54857361	    -10.40761486	     33.74725461	     46.57029378	      0.00000000	      0.00000000	     25.82348273	    -19.24828729	     -4.92132359	     59.16970904	     47.08680519	      0.00000000	      0.00000000
     35.09485714	     -3.67325460	     -2.78481299	     -6.00986701	      1.10066017	      0.92925592	      0.44164869	     24.37389161	     -2.90334881	     -8.76736739	     19.39395661	     19.39395661	      4.54837028	      3.70150308	      3.88103071	      2.04008336	     -3.59151464	    -15.00398867	     14.46619233	     14.46619233	     17.55107248	     -1.21423970	     -4.13280646	     -9.78881677	      1.30280663	     -1.29763330	     -8.46618120	    -12.52939654	    -10.19240845	     34.40780589	     46.52502716	      0.00000000	      0.00000000	     25.24110879	    -19.12680291	     -4.89097611	     58.52520254	     47.07185308	      0.00000000	      0.00000000
     35.10857143	     -3.54935909	     -2.62553404	     -5.76211403	      1.10181992	      0.92857940	      0.44357429	     23.76151203	     -2.98180524	     -8.40528669	     19.96292630	     19.96292630	      4.78048119	      3.25532530	      3.50075624	      1.28728172	     -3.49068336	    -15.03740833	     14.13040387	     14.13040387	     17.81318236	     -0.70807906	     -4.14164112	     -9.63247842	      1.21196601	     -1.50541499	     -7.87034679	    -12.58213482	    -10.03326958	     35.15858162	     46.48289553	      0.00000000	      0.00000000	     24.61692293	    -18.97438758	     -4.93967030	     57.73734094	     47.06020530	      0.00000000	      0.00000000
     35.12228571	     -3.63185247	     -2.50833319	     -5.46762441	      1.10285790	      0.92775278	      0.44564024	     23.21873488	     -3.00014852	     -8.30248491	     20.13468177	     20.13468177	      5.08609262	      3.11961595	      3.35380100	      0.95569361	     -3.50734394	    -14.81095064	     14.14798526	     14.14798526	     18.04647352	     -0.55559529	     -4.23048586	     -9.26716202	      1.11062079	     -1.28808993	     -7.40284401	    -12.57692846	    -10.00027608	     35.43712061	     46.47225788	      0.00000000	      0.00000000	     24.11228520	    -18.64251428	     -4.86174770	     57.47614088	     47.04602012	      0.00000000	      0.00000000
     35.13600000	     -3.39088955	     -2.47102360	     -5.20810482	      1.10406316	      0.92748424	      0.44790394	     22.41447561	     -2.79284780	     -7.49511943	     20.29998446	     20.29998446	      4.81639298	      1.65317109	      1.43362334	      0.24418789	     -3.70544915	    -15.36211093	     14.23789440	     14.23789440	     18.78640652	      0.83841688	     -3.48376650	     -9.27669816	      1.26372806	     -1.53366267	     -7.62420426	    -13.07328145	     -8.42474787	     39.23358018	     46.19344017	      0.00000000	      0.00000000	     23.95890391	    -17.74751517	     -6.31833900	     54.17157678	     47.11629809	      0.00000000	      0.00000000
     35.14971429	     -3.32258661	     -2.41125008	     -4.93659739	      1.10509904	      0.92718773	      0.45021050	     21.89442287	     -2.71835654	     -7.24939799	     20.56626242	     20.56626242	      5.20209686	      1.12873770	      0.98269777	     -0.22034286	     -3.80527098	    -15.20237846	     14.31382390	     14.31382390	     19.01458110	      1.01276557	     -3.25539717	     -9.12654063	      1.30305644	     -1.79019423	     -6.80475646	    -13.20480172	     -8.25194850	     40.21152154	     46.14450674	      0.00000000	      0.00000000	     23.00085182	    -17.65954741	     -6.30991410	     53.11604298	     47.09059454	      0.00000000	      0.00000000
     35.16342857	     -3.26659400	     -2.42269289	     -4.70508019	      1.10608262	      0.92709975	      0.45267928	     21.39565507	     -2.58027812	     -7.15205663	     20.75640060	     20.75640060	      5.68477534	      0.86303489	      0.73192702	     -0.56464774	     -4.02846831	    -15.01095328	     14.59082175	     14.59082175	     19.13332990	      0.99146552	     -3.23561873	     -9.01422161	      1.39589712	     -1.53517709	     -6.07798020	    -13.36718063	     -8.23954780	     40.68504853	     46.12915998	      0.00000000	      0.00000000	     22.08032312	    -17.11578116	     -6.20211588	     52.54925098	     47.06490096	      0.00000000	      0.00000000
     35.17714286	     -3.20315347	     -2.64403762	     -4.44091346	      1.10685246	      0.92719193	      0.45559725	     20.79063988	     -2.04279515	     -6.62278479	     20.63484817	     20.63484817	      5.53402886	     -0.63596964	     -0.73500689	     -0.51724431	     -4.71449126	    -15.15488984	     15.75753929	     15.75753929	     20.12430873	      1.62795465	     -1.72769148	     -8.92202185	      1.77981587	     -1.49415405	     -6.12396754	    -14.00172079	     -6.96649135	     44.19176636	     45.90417922	      0.00000000	      0.00000000	     22.02100752	    -16.40479405	     -7.53205035	     49.04530713	     47.12380061	      0.00000000	      0.00000000
     35.19085714	     -3.10993903	     -2.83018056	     -4.18823301	      1.10759099	      0.92755067	      0.45851901	     20.24926764	     -1.68661331	     -6.63968165	     20.69742322	     20.69742322	      5.97704336	     -1.03872173	     -0.96789070	     -0.53496334	     -5.26147847	    -14.82056326	     16.70603597	     16.70603597	     20.22096352	      1.25901189	     -1.69607802	     -8.91379771	      2.06577090	     -1.65299718	     -5.04602209	    -14.18778638	     -7.02889321	     45.12532486	     45.87579443	      0.00000000	      0.00000000	     20.87361887	    -16.29018017	     -7.54536247	     47.93204689	     47.09746353	      0.00000000	      0.00000000
     35.20457143	     -3.08941003	     -3.03281614	     -3.94712069	      1.10825102	      0.92799020	      0.46168243	     19.74543326	     -1.26393360	     -6.60620461	     20.63744663	     20.63744663	      6.31763662	     -1.56394075	     -1.16533287	     -0.28037613	     -5.91131097	    -14.45677991	     18.01651567	     18.01651567	     20.32961907	      0.90257732	     -1.65091789	     -8.80399351	      2.36149222	     -1.81187540	     -4.03969770	    -14.35804680	     -6.98035521	     46.44642044	     45.82654489	      0.00000000	      0.00000000	     19.73212225	    -16.09510950	     -7.70232114	     46.37328728	     47.08008352	      0.00000000	      0.00000000
     35.21828571	     -2.97890279	     -3.25582492	     -3.73941322	      1.10892327	      0.92866064	      0.46500859	     19.13410551	     -0.83432399	     -6.67909540	     20.56104836	     20.56104836	      6.67904409	     -1.87104715	     -1.35484390	      0.00898684	     -6.62072071	    -14.09309877	     19.56659429	     19.56659429	     20.32798063	      0.42151449	     -1.69638046	     -8.79285957	      2.66340250	     -1.79430529	     -3.08498014	    -14.62745241	     -6.89958756	     47.80879187	     45.77519596	      0.00000000	      0.00000000	     18.66667155	    -15.79711365	     -7.87317563	     44.81231065	     47.06640675	      0.00000000	      0.00000000
     35.23200000	     -2.80073781	     -3.47520281	     -3.56599157	      1.10961562	      0.92946801	      0.46853989	     18.43014861	     -0.41045551	     -6.85549452	     20.45210395	     20.45210395	      7.05518367	     -1.96698097	     -1.51610127	      0.37672326	     -7.35850785	    -13.66539653	     21.39215096	     21.39215096	     20.18149810	     -0.24795544	     -1.90715229	     -8.86512955	      2.91620704	     -1.69007881	     -2.05412439	    -14.93824277	     -6.85309097	     49.12471649	     45.72901040	      0.00000000	      0.00000000	     17.56467926	    -15.52089095	     -7.98996506	     43.34670577	     47.05010367	      0.00000000	      0.00000000
     35.24571429	     -2.71954812	     -3.64437476	     -3.36759859	      1.11023201	      0.93011795	      0.47209579	     17.80214256	     -0.04330666	     -7.06657194	     20.27965415	     20.27965415	      7.28866683	     -1.99953002	     -1.89069686	      1.07752979	     -8.08659401	    -13.06849085	     23.57231394	     23.57231394	     19.74199931	     -1.10317155	     -2.63232250	     -8.78398533	      3.17234500	     -1.33520789	     -2.15475997	    -15.77205157	     -5.67590171	     53.15541933	     45.52493191	      0.00000000	      0.00000000	     17.47313200	    -14.78637577	     -8.92624668	     39.33046620	     47.09823365	      0.00000000	      0.00000000
